<svg xmlns="http://www.w3.org/2000/svg" xmlns:xlink="http://www.w3.org/1999/xlink" id="Layer_1" version="1.1" viewBox="0 0 30 30" xml:space="preserve" style="enable-background:new 0 0 30 30"><style type="text/css">.st19{stroke-linecap:round;stroke-linejoin:round;stroke-miterlimit:10}.st2{fill:none;stroke:#6a83ba;stroke-width:4}.st2,.st6{stroke-linecap:round;stroke-linejoin:round;stroke-miterlimit:10}.st19,.st6{stroke-width:2}.st6{fill:#f2bb41;stroke:#f2bb41}.st19{fill:#354c75;stroke:#354c75}</style><path d="M9,16V8c0-3.3,2.7-6,6-6h0c3.3,0,6,2.7,6,6v8" class="st2"/><path d="M22,29H8c-1.1,0-2-0.9-2-2V16c0-1.1,0.9-2,2-2h14c1.1,0,2,0.9,2,2v11C24,28.1,23.1,29,22,29z" class="st6"/><path d="M15,24L15,24c-0.6,0-1-0.4-1-1v-3c0-0.6,0.4-1,1-1h0c0.6,0,1,0.4,1,1v3C16,23.6,15.6,24,15,24z" class="st19"/></svg>