<svg xmlns="http://www.w3.org/2000/svg" xmlns:osb="http://www.openswatchbook.org/uri/2009/osb" xmlns:svg="http://www.w3.org/2000/svg" xmlns:xlink="http://www.w3.org/1999/xlink" id="svg8" width="594mm" height="420mm" version="1.1" viewBox="0 0 594 420"><defs id="defs2"><linearGradient id="linearGradient84086"><stop style="stop-color:#cdde87;stop-opacity:1" id="stop84082" offset="0"/><stop style="stop-color:#cdde87;stop-opacity:0" id="stop84084" offset="1"/></linearGradient><linearGradient id="linearGradient84065"><stop style="stop-color:#000;stop-opacity:1" id="stop84061" offset="0"/><stop style="stop-color:#000;stop-opacity:0" id="stop84063" offset="1"/></linearGradient><linearGradient id="linearGradient84055" osb:paint="gradient"><stop style="stop-color:#04f6ff;stop-opacity:1" id="stop84051" offset="0"/><stop style="stop-color:#04f6ff;stop-opacity:0" id="stop84053" offset="1"/></linearGradient><marker id="Arrow1Mstart" orient="auto" refX="0" refY="0" style="overflow:visible"><path id="path83757" d="M 0,0 5,-5 -12.5,0 5,5 Z" transform="matrix(0.4,0,0,0.4,4,0)" style="fill-rule:evenodd;stroke:#000;stroke-width:1.00000003pt"/></marker><marker id="Arrow1Lend" orient="auto" refX="0" refY="0" style="overflow:visible"><path id="path83754" d="M 0,0 5,-5 -12.5,0 5,5 Z" transform="matrix(-0.8,0,0,-0.8,-10,0)" style="fill-rule:evenodd;stroke:#000;stroke-width:1.00000003pt"/></marker><marker id="Arrow1Lstart" orient="auto" refX="0" refY="0" style="overflow:visible"><path id="path83751" d="M 0,0 5,-5 -12.5,0 5,5 Z" transform="matrix(0.8,0,0,0.8,10,0)" style="fill-rule:evenodd;stroke:#000;stroke-width:1.00000003pt"/></marker><linearGradient id="linearGradient84067" x1="111.125" x2="175.346" y1="122.375" y2="148.245" gradientUnits="userSpaceOnUse" xlink:href="#linearGradient84065"/><linearGradient id="linearGradient84088" x1="127" x2="58.208" y1="180.583" y2="156.771" gradientUnits="userSpaceOnUse" xlink:href="#linearGradient84086"/><symbol id="icon-chat" viewBox="0 0 1024 1024"><title id="title3010">chat</title><path style="stroke-width:.26458332" id="path3012" d="M 203.16613,101.6 V 67.733333 C 203.16613,20.971933 169.33333,0 135.46667,0 H 67.699467 C 33.866667,0 0,17.991667 0,67.733333 0,116.41667 33.866667,135.46667 67.699467,135.46667 h 7.874 c -4.7244,9.1694 -7.747,20.066 -7.840134,33.29093 v 35.1028 c 0.3556,37.09247 30.547734,67.07293 67.733337,67.07293 0,-18.7198 15.18073,-33.86666 33.86666,-33.86666 h 33.8328 c 33.90054,0 67.7672,-19.05 67.7672,-67.73334 0,-49.74166 -33.86666,-67.73333 -67.7672,-67.73333 z m -135.466663,0 c -33.8328,0 -33.8328,-25.5016 -33.8328,-33.866667 0,-10.151533 0,-33.866666 33.8328,-33.866666 h 67.767203 c 12.66613,0 33.86666,4.402666 33.86666,33.866666 V 101.6 c 0,11.06593 -5.32553,20.92113 -13.62286,27.1018 C 143.34067,112.25107 123.68953,101.6 101.6,101.6 Z M 203.16613,203.2 h -33.8328 c -22.1234,0 -41.8084,10.65107 -54.16973,27.08487 C 106.92553,224.1042 101.6,214.249 101.6,203.2 v -33.86667 c 0,-15.494 7.70467,-24.90046 15.37547,-29.73493 10.85426,5.65573 18.4912,16.67087 18.4912,29.73493 25.02746,0 46.61746,-13.716 58.3692,-33.8836 l 9.33026,0.0169 c 33.90054,0 33.90054,23.73206 33.90054,33.86666 0,8.382 0,33.86667 -33.90054,33.86667 z"/></symbol><symbol id="icon-user" viewBox="0 0 768 1024"><title id="title3735">user</title><path style="stroke-width:.26458332" id="path3737" d="m 101.6,135.46667 c -56.091667,0 -101.6,45.50833 -101.6,101.6 0,18.7198 15.146867,33.86666 33.866667,33.86666 H 169.33333 c 18.7198,0 33.86667,-15.14686 33.86667,-33.86666 0,-56.09167 -45.50833,-101.6 -101.6,-101.6 z M 50.8,50.8 C 50.8,22.743848 73.543848,0 101.6,0 c 28.05615,0 50.8,22.743848 50.8,50.8 0,28.056152 -22.74385,50.8 -50.8,50.8 -28.056152,0 -50.8,-22.743848 -50.8,-50.8 z"/></symbol><symbol id="icon-chart-alt" viewBox="0 0 960 1024"><title id="title3715">chart-alt</title><path style="stroke-width:.26458332" id="path3717" d="M 123.04607,164.4396 33.485667,74.8792 c -44.644734,51.52813 -44.644734,127.59267 0,179.1208 z M 135.46667,152.4 V 0 C 93.9292,2.5823333 56.4896,18.457333 26.272067,43.196933 Z M 152.41693,34.002133 V 159.4104 l -87.909397,87.9094 c 19.7104,14.48647 43.459397,23.61353 69.722997,23.61353 C 200.42293,270.93333 254,217.35627 254,151.27393 254,91.346867 209.74473,42.799 152.41693,34.002133 Z"/></symbol></defs><metadata id="metadata5"/><g id="layer1" transform="translate(0,123)"><g id="g85009" transform="matrix(2.0235442,0,0,2.0235442,-98.450509,-143.57785)"><g id="g85025" transform="translate(88.575404,-30.398116)"><g id="g85085" transform="matrix(2.8159225,0,0,2.8159225,-174.00385,-265.74041)"><g id="g85067" transform="translate(6.6499426,5.3594479)"><g id="g85125" transform="matrix(0.56420332,0,0,0.56420332,39.090505,57.486205)"><g id="g85169" transform="matrix(1.1005316,0,0,1.1005316,-1.0784,-7.4694509)"><g id="g85298" transform="matrix(1.1547141,0,0,1.1547141,0.91897642,-18.601317)"><g id="g85279"><ellipse style="fill:#d5ffd5;fill-opacity:1;stroke:#001c1c;stroke-width:.44198149;stroke-linecap:square;stroke-linejoin:round;stroke-miterlimit:4;stroke-dasharray:none;stroke-opacity:1;paint-order:fill markers stroke" id="path85132" cx="81.862" cy="143.798" rx="72.763" ry="54.572" transform="matrix(0.90865179,0,0,0.90865179,0.97989006,6.7871296)"/><g id="g85260"><g style="fill:#fff6d5" id="g85039" transform="translate(-25.178052,-8.8160551)"><rect id="rect84311" width="100.542" height="44.979" x="50.271" y="127.667" style="fill:#fff6d5;fill-opacity:1;stroke:#001c1c;stroke-width:.74969387;stroke-linecap:square;stroke-linejoin:round;stroke-miterlimit:4;stroke-dasharray:none;stroke-opacity:1;paint-order:fill markers stroke"/><use style="fill:#fff6d5;stroke:none" id="use84958" width="100%" height="100%" x="0" y="0" transform="matrix(0.10325932,0,0,0.10325932,127.39205,129.55077)" xlink:href="#icon-chart-alt"/></g><g id="g85053" transform="translate(-24.31753,-6.89027)"><g style="fill:#000;fill-opacity:1;stroke:none;stroke-width:.2;stroke-miterlimit:4;stroke-dasharray:none;stroke-opacity:1" id="g907" transform="matrix(0.85426454,0,0,0.85426454,14.711563,31.596948)"><path style="color:#000;font-style:normal;font-variant:normal;font-weight:400;font-stretch:normal;font-size:medium;line-height:normal;font-family:sans-serif;font-variant-ligatures:normal;font-variant-position:normal;font-variant-caps:normal;font-variant-numeric:normal;font-variant-alternates:normal;font-feature-settings:normal;text-indent:0;text-align:start;text-decoration:none;text-decoration-line:none;text-decoration-style:solid;text-decoration-color:#000;letter-spacing:normal;word-spacing:normal;text-transform:none;writing-mode:lr-tb;direction:ltr;text-orientation:mixed;dominant-baseline:auto;baseline-shift:baseline;text-anchor:start;white-space:normal;shape-padding:0;clip-rule:nonzero;display:inline;overflow:visible;visibility:visible;opacity:1;isolation:auto;mix-blend-mode:normal;color-interpolation:sRGB;color-interpolation-filters:linearRGB;solid-color:#000;solid-opacity:1;vector-effect:none;fill:#000;fill-opacity:1;fill-rule:nonzero;stroke:none;stroke-width:.2;stroke-linecap:butt;stroke-linejoin:miter;stroke-miterlimit:4;stroke-dasharray:none;stroke-dashoffset:0;stroke-opacity:1;color-rendering:auto;image-rendering:auto;shape-rendering:auto;text-rendering:auto;enable-background:accumulate" id="path854" d="m 72.597656,112.45898 -10.076172,20.1504 -0.02734,0.12304 c -2.501616,11.09162 -1.686548,18.12737 1.630859,23.20117 3.317407,5.07381 8.921226,7.99968 15.613281,11.34571 l 0.921875,-1.84375 c -6.667493,-3.33375 -11.882684,-6.15284 -14.810547,-10.63086 -2.917879,-4.46275 -3.770756,-10.7679 -1.361328,-21.51953 l 9.953125,-19.90625 z"/><path style="color:#000;font-style:normal;font-variant:normal;font-weight:400;font-stretch:normal;font-size:medium;line-height:normal;font-family:sans-serif;font-variant-ligatures:normal;font-variant-position:normal;font-variant-caps:normal;font-variant-numeric:normal;font-variant-alternates:normal;font-feature-settings:normal;text-indent:0;text-align:start;text-decoration:none;text-decoration-line:none;text-decoration-style:solid;text-decoration-color:#000;letter-spacing:normal;word-spacing:normal;text-transform:none;writing-mode:lr-tb;direction:ltr;text-orientation:mixed;dominant-baseline:auto;baseline-shift:baseline;text-anchor:start;white-space:normal;shape-padding:0;clip-rule:nonzero;display:inline;overflow:visible;visibility:visible;opacity:1;isolation:auto;mix-blend-mode:normal;color-interpolation:sRGB;color-interpolation-filters:linearRGB;solid-color:#000;solid-opacity:1;vector-effect:none;fill:#000;fill-opacity:1;fill-rule:nonzero;stroke:none;stroke-width:.2;stroke-linecap:butt;stroke-linejoin:miter;stroke-miterlimit:4;stroke-dasharray:none;stroke-dashoffset:0;stroke-opacity:1;color-rendering:auto;image-rendering:auto;shape-rendering:auto;text-rendering:auto;enable-background:accumulate" id="path821" d="m 44.470703,116.05664 -2.019531,0.4043 c 1.688078,8.44039 3.761113,13.1908 6.230469,15.66015 1.234677,1.23468 2.620361,1.87622 3.99414,1.95703 1.373779,0.0808 2.67486,-0.37132 3.839844,-1.07031 2.180811,-1.30848 3.956209,-3.48078 5.326172,-5.42969 l -6.042969,45.32227 2.042969,0.27344 6.679687,-50.09961 -1.943359,-0.5957 c 0,0 -0.805249,1.60809 -2.121094,3.53125 -1.315844,1.92315 -3.157062,4.12353 -5.001953,5.23046 -0.922445,0.55347 -1.814089,0.83091 -2.658203,0.78125 -0.844114,-0.0496 -1.70108,-0.40029 -2.658203,-1.35742 -1.914246,-1.91424 -4.01616,-6.34838 -5.667969,-14.60742 z"/></g><circle style="fill:#ff0;fill-opacity:1;stroke:#001c1c;stroke-width:1.30189919;stroke-linecap:square;stroke-linejoin:round;stroke-miterlimit:4;stroke-dasharray:none;stroke-opacity:1;paint-order:stroke fill markers" id="path831" cx="69.497" cy="123.548" r="13.751"/></g><g style="font-style:normal;font-variant:normal;font-weight:400;font-stretch:normal;font-size:35.38868332px;line-height:1.25;font-family:Ani;-inkscape-font-specification:'Ani, Normal';font-variant-ligatures:normal;font-variant-caps:normal;font-variant-numeric:normal;font-feature-settings:normal;text-align:start;letter-spacing:0;word-spacing:0;writing-mode:lr-tb;text-anchor:start;fill:#165044;fill-opacity:1;stroke:none;stroke-width:.185;stroke-miterlimit:4;stroke-dasharray:none;stroke-opacity:1" id="text888" aria-label="Vote" transform="translate(-15.590784,3.953497)"><path style="fill:#165044;fill-opacity:1;stroke:none;stroke-width:.185;stroke-miterlimit:4;stroke-dasharray:none;stroke-opacity:1" id="path890" d="m 76.449757,129.31556 5.011093,12.94244 4.648221,-12.83876 -1.175015,-0.0691 -1.123176,-3.54232 h 7.637597 l 1.952598,3.61144 -4.717339,-0.0346 -7.49936,22.82639 -7.361123,-22.68815 -1.313252,-0.1728 -1.83164,-3.33497 h 7.862232 l 1.658844,3.30041 z"/><path style="fill:#165044;fill-opacity:1;stroke:none;stroke-width:.22812885;stroke-miterlimit:4;stroke-dasharray:none;stroke-opacity:1" id="path892" d="m 103.08862,145.66843 q 1.08671,-1.87511 0.49008,-3.30275 -0.57531,-1.42763 -2.81265,-1.70464 -2.514328,-0.34092 -4.623806,0.80971 -2.109491,1.12932 -3.132275,2.89789 -1.044093,1.76857 -0.447469,3.1962 0.596624,1.42764 3.110974,1.74725 2.237325,0.29832 4.368106,-0.89493 2.13079,-1.21456 3.04704,-2.74873 z m 1.98164,0.36223 q -1.29978,2.36519 -4.36814,4.21899 -3.047019,1.83248 -6.264515,1.38502 -3.601054,-0.49009 -4.453375,-2.68481 -0.831011,-2.19472 0.660549,-4.90085 1.470253,-2.6848 4.495991,-4.43206 3.025718,-1.76857 6.62675,-1.27848 3.19621,0.44746 4.02722,2.6422 0.85232,2.19472 -0.72448,5.04999 z"/><path style="fill:#165044;fill-opacity:1;stroke:none;stroke-width:.185;stroke-miterlimit:4;stroke-dasharray:none;stroke-opacity:1" id="path894" d="m 109.64168,125.1616 v 26.00584 l 2.33275,1.90076 5.70227,-3.80152 -1.38237,-0.51839 -4.4063,1.38237 0.0864,-17.45242 h 6.73905 l -1.12317,-1.72797 h -5.27029 v -3.80151 l -2.07356,-1.72797 z"/><path style="fill:#165044;fill-opacity:1;stroke:none;stroke-width:.185;stroke-miterlimit:4;stroke-dasharray:none;stroke-opacity:1" id="path896" d="m 125.3143,147.88431 10.85161,-6.28978 -9.71115,-2.85114 -4.94198,4.37174 -0.38015,3.43865 4.94197,4.7519 4.38903,0.38015 5.13205,-3.80152 -2.47099,-1.33053 -3.42136,3.23129 -3.24857,-0.19007 -3.23129,-3.2313 0.38015,-2.48826 2.85114,-1.90076 4.76917,0.19007 -7.62031,4.00888 z"/></g><path style="color:#000;font-style:normal;font-variant:normal;font-weight:400;font-stretch:normal;font-size:medium;line-height:normal;font-family:sans-serif;font-variant-ligatures:normal;font-variant-position:normal;font-variant-caps:normal;font-variant-numeric:normal;font-variant-alternates:normal;font-feature-settings:normal;text-indent:0;text-align:start;text-decoration:none;text-decoration-line:none;text-decoration-style:solid;text-decoration-color:#000;letter-spacing:normal;word-spacing:normal;text-transform:none;writing-mode:lr-tb;direction:ltr;text-orientation:mixed;dominant-baseline:auto;baseline-shift:baseline;text-anchor:start;white-space:normal;shape-padding:0;clip-rule:nonzero;display:inline;overflow:visible;visibility:visible;opacity:1;isolation:auto;mix-blend-mode:normal;color-interpolation:sRGB;color-interpolation-filters:linearRGB;solid-color:#000;solid-opacity:1;vector-effect:none;fill:#045;fill-opacity:1;fill-rule:nonzero;stroke:none;stroke-width:2.86500001;stroke-linecap:butt;stroke-linejoin:miter;stroke-miterlimit:4;stroke-dasharray:none;stroke-dashoffset:0;stroke-opacity:1;color-rendering:auto;image-rendering:auto;shape-rendering:auto;text-rendering:auto;enable-background:accumulate" id="path882" d="m 123.82914,153.42224 -2.02539,2.02734 c 0,0 -0.29668,-0.3254 -0.32226,-0.68359 -0.0256,-0.35819 0.22189,-0.64974 0.15429,-0.5918 -0.13519,0.11588 -1.48704,0.85436 -5.02734,1.49805 -7.08061,1.28738 -22.93191,2.62305 -57.291021,2.62305 v 2.86523 c 34.432571,0 50.331261,-1.31147 57.802741,-2.66992 3.73574,-0.67923 5.3585,-1.26432 6.38086,-2.14063 0.51118,-0.43815 0.88414,-1.14148 0.83789,-1.78906 -0.0463,-0.64757 -0.50977,-1.13867 -0.50977,-1.13867 z"/></g></g></g></g></g></g></g></g></g></g></svg>